<svg id="visual" viewBox="0 0 600 290" width="600" height="290" xmlns="http://www.w3.org/2000/svg" xmlns:xlink="http://www.w3.org/1999/xlink" version="1.1"><rect x="0" y="0" width="600" height="290" fill="#24263a"></rect><path d="M0 173L14.3 178.7C28.7 184.3 57.3 195.7 85.8 200.7C114.3 205.7 142.7 204.3 171.2 204.8C199.7 205.3 228.3 207.7 257 203.3C285.7 199 314.3 188 343 184C371.7 180 400.3 183 428.8 187.2C457.3 191.3 485.7 196.7 514.2 198.2C542.7 199.7 571.3 197.3 585.7 196.2L600 195L600 291L585.7 291C571.3 291 542.7 291 514.2 291C485.7 291 457.3 291 428.8 291C400.3 291 371.7 291 343 291C314.3 291 285.7 291 257 291C228.3 291 199.7 291 171.2 291C142.7 291 114.3 291 85.8 291C57.3 291 28.7 291 14.3 291L0 291Z" fill="#1d5c96"></path><path d="M0 215L14.3 213.7C28.7 212.3 57.3 209.7 85.8 211.2C114.3 212.7 142.7 218.3 171.2 217.5C199.7 216.7 228.3 209.3 257 207.3C285.7 205.3 314.3 208.7 343 210.8C371.7 213 400.3 214 428.8 215.7C457.3 217.3 485.7 219.7 514.2 218.8C542.7 218 571.3 214 585.7 212L600 210L600 291L585.7 291C571.3 291 542.7 291 514.2 291C485.7 291 457.3 291 428.8 291C400.3 291 371.7 291 343 291C314.3 291 285.7 291 257 291C228.3 291 199.7 291 171.2 291C142.7 291 114.3 291 85.8 291C57.3 291 28.7 291 14.3 291L0 291Z" fill="#3870a8"></path><path d="M0 213L14.3 218C28.7 223 57.3 233 85.8 237.8C114.3 242.7 142.7 242.3 171.2 242.2C199.7 242 228.3 242 257 239.2C285.7 236.3 314.3 230.7 343 225.8C371.7 221 400.3 217 428.8 217.8C457.3 218.7 485.7 224.3 514.2 228.8C542.7 233.3 571.3 236.7 585.7 238.3L600 240L600 291L585.7 291C571.3 291 542.7 291 514.2 291C485.7 291 457.3 291 428.8 291C400.3 291 371.7 291 343 291C314.3 291 285.7 291 257 291C228.3 291 199.7 291 171.2 291C142.7 291 114.3 291 85.8 291C57.3 291 28.7 291 14.3 291L0 291Z" fill="#4f85ba"></path><path d="M0 252L14.3 253.7C28.7 255.3 57.3 258.7 85.8 257.7C114.3 256.7 142.7 251.3 171.2 250.5C199.7 249.7 228.3 253.3 257 252.8C285.7 252.3 314.3 247.7 343 244.2C371.7 240.7 400.3 238.3 428.8 237.3C457.3 236.3 485.7 236.7 514.2 236.2C542.7 235.7 571.3 234.3 585.7 233.7L600 233L600 291L585.7 291C571.3 291 542.7 291 514.2 291C485.7 291 457.3 291 428.8 291C400.3 291 371.7 291 343 291C314.3 291 285.7 291 257 291C228.3 291 199.7 291 171.2 291C142.7 291 114.3 291 85.8 291C57.3 291 28.7 291 14.3 291L0 291Z" fill="#669acc"></path><path d="M0 274L14.3 272.5C28.7 271 57.3 268 85.8 266C114.3 264 142.7 263 171.2 261C199.7 259 228.3 256 257 256.5C285.7 257 314.3 261 343 263.7C371.7 266.3 400.3 267.7 428.8 268.7C457.3 269.7 485.7 270.3 514.2 271.2C542.7 272 571.3 273 585.7 273.5L600 274L600 291L585.7 291C571.3 291 542.7 291 514.2 291C485.7 291 457.3 291 428.8 291C400.3 291 371.7 291 343 291C314.3 291 285.7 291 257 291C228.3 291 199.7 291 171.2 291C142.7 291 114.3 291 85.8 291C57.3 291 28.7 291 14.3 291L0 291Z" fill="#7db0de"></path></svg>